# Blender3D v248 OBJ File:
# www.blender3d.org
mtllib cornell-box.mtl
v 0.816987 0.000000 1.183013
v 1.683013 0.000000 0.683013
v 0.316987 0.000000 0.316987
v 1.183013 -0.000000 -0.183013
v 0.816987 2.000000 1.183013
v 1.683013 2.000000 0.683013
v 0.316987 2.000000 0.316987
v 1.183013 2.000000 -0.183013
v -0.983013 0.000000 0.683013
v -0.116987 0.000000 0.183013
v -1.483013 -0.000000 -0.183013
v -0.616987 -0.000000 -0.683013
v -0.983013 3.000000 0.683013
v -0.116987 3.000000 0.183013
v -1.483013 3.000000 -0.183013
v -0.616987 3.000000 -0.683013
v -2.0 0.0 -2.0
v  2.0 0.0 -2.0
v -2.0 4.0 -2.0
v  2.0 4.0 -2.0
v  2.0 0.0  2.0
v  2.0 0.0 -2.0
v  2.0 4.0  2.0
v  2.0 4.0 -2.0
v -2.0 0.0  2.0
v -2.0 0.0 -2.0
v -2.0 4.0  2.0
v -2.0 4.0 -2.0
v -2.0 4.0  2.0
v  2.0 4.0  2.0
v -2.0 4.0 -2.0
v  2.0 4.0 -2.0
v -2.0 0.0  2.0
v  2.0 0.0  2.0
v -2.0 0.0 -2.0
v  2.0 0.0 -2.0
vn 0.000000 -1.000000 0.000000
vn 0.000000 1.000000 0.000000
vn 0.500000 0.000000 0.866025
vn 0.866025 -0.000000 -0.500000
vn -0.500000 -0.000000 -0.866025
vn -0.866025 0.000000 0.500000
vn 0.000000 0.000000 1.000000
vn -1.000000 0.000000 0.000000
vn 1.000000 0.000000 0.000000
usemtl ShortBox
s off
f 1//1 3//1 4//1
f 2//1 1//1 4//1
f 5//2 6//2 8//2
f 8//2 7//2 5//2
f 1//3 2//3 6//3
f 5//3 1//3 6//3
f 2//4 4//4 8//4
f 8//4 6//4 2//4
f 4//5 3//5 7//5
f 7//5 8//5 4//5
f 3//6 1//6 5//6
f 5//6 7//6 3//6
usemtl TallBox
f 9//1 11//1 12//1
f 12//1 10//1 9//1
f 13//2 14//2 16//2
f 16//2 15//2 13//2
f 9//3 10//3 14//3
f 14//3 13//3 9//3
f 10//4 12//4 16//4
f 16//4 14//4 10//4
f 12//5 11//5 15//5
f 15//5 16//5 12//5
f 11//6 9//6 13//6
f 13//6 15//6 11//6
usemtl OtherWalls
f 17//7 18//7 19//7
f 20//7 19//7 18//7
usemtl RightWall
f 22//8 21//8 24//8
f 23//8 24//8 21//8
usemtl LeftWall
f 25//9 26//9 27//9
f 28//9 27//9 26//9
usemtl OtherWalls
f 30//1 29//1 32//1
f 31//1 32//1 29//1
f 35//2 33//2 36//2
f 34//2 36//2 33//2
